# xmcd
#
# Track frame offsets:
#	150
#	14217
#	29681
#	39503
#	56838
#	78401
#	97883
#	109205
#	123792
#	136738
#	149412
#	162219
#
# Disc length: 2389 seconds
#
# Revision: 3
# Processed by: cddbd v1.5.2PL0 Copyright (c) Steve Scherf et al.
# Submitted via: EZCDAudioConverter 1.2.3.1
#
DISCID=a209530c
DTITLE=Quinn Freddy  - Junge komm bald wieder .flac
DYEAR=2000
DGENRE=Country
TTITLE0=Junge. komm bald wiener
TTITLE1=Heimweh
TTITLE2=Die gitarre und das meer
TTITLE3=La paloma
TTITLE4=Grosse Freiheit Nr7
TTITLE5=Auf der reeperbahn nachts un halb eins
TTITLE6=Hundert mann und ein befehl
TTITLE7=Aloa oe
TTITLE8=Vergangen, vergessen, voruber
TTITLE9=Unter fremden sternen
TTITLE10=Beim ersten mal, da tut's noch weh
TTITLE11=Rolling home
EXTD=
EXTT0=
EXTT1=
EXTT2=
EXTT3=
EXTT4=
EXTT5=
EXTT6=
EXTT7=
EXTT8=
EXTT9=
EXTT10=
EXTT11=
PLAYORDER=
